<?xml version="1.0" standalone="no"?>
<!DOCTYPE svg PUBLIC "-//W3C//DTD SVG 20010904//EN"
 "http://www.w3.org/TR/2001/REC-SVG-20010904/DTD/svg10.dtd">
<svg version="1.0" xmlns="http://www.w3.org/2000/svg"
 width="512.000000pt" height="512.000000pt" viewBox="0 0 512.000000 512.000000"
 preserveAspectRatio="xMidYMid meet">
<metadata>
Created by potrace 1.11, written by Peter Selinger 2001-2013
</metadata>
<g transform="translate(0.000000,512.000000) scale(0.100000,-0.100000)"
fill="#000000" stroke="none">
<path d="M0 2560 l0 -2560 2560 0 2560 0 0 2560 0 2560 -2560 0 -2560 0 0
-2560z m3851 1446 c789 -148 720 -132 714 -159 -3 -12 -21 -123 -40 -247 -19
-124 -53 -340 -75 -480 -22 -140 -58 -367 -80 -505 -85 -538 -119 -754 -136
-860 l-18 -110 -12 45 c-7 25 -35 144 -63 265 -53 226 -83 356 -196 840 -37
154 -81 345 -100 425 -19 80 -52 224 -75 320 -23 96 -55 234 -71 305 -17 72
-35 145 -39 163 -4 17 -5 32 -1 32 4 0 90 -15 192 -34z m-1599 -5 c120 -26
278 -81 378 -131 265 -133 527 -390 646 -633 15 -31 31 -54 36 -51 4 3 5 -2 2
-10 -3 -9 -1 -16 5 -16 7 0 11 -6 10 -12 -1 -7 1 -20 4 -28 65 -159 99 -348
98 -545 -2 -234 -45 -424 -143 -619 -55 -110 -86 -160 -165 -259 -30 -37 -53
-73 -50 -80 8 -21 295 -336 301 -331 3 2 4 1 1 -3 -3 -3 14 -26 36 -50 22 -25
39 -47 36 -49 -3 -3 -150 -5 -328 -5 l-324 1 -25 28 c-14 15 -43 49 -66 76
l-41 48 -104 -51 c-236 -114 -457 -156 -739 -139 -529 32 -1010 348 -1236 813
-99 204 -133 341 -141 571 -6 177 3 272 42 421 147 562 643 990 1240 1072 117
16 415 6 527 -18z m2117 -2706 c29 -85 53 -158 53 -162 0 -4 -59 -43 -131 -85
l-131 -77 -132 91 c-73 49 -134 91 -136 93 -1 1 25 68 59 149 l63 146 151 0
151 0 53 -155z"/>
<path d="M1790 3463 c-344 -60 -619 -314 -711 -658 -31 -114 -31 -336 -1 -448
88 -322 310 -548 629 -639 114 -32 324 -32 438 0 44 13 86 27 94 31 10 6 -63
94 -273 332 l-286 324 323 3 c177 1 327 0 333 -2 6 -2 80 -84 165 -181 l153
-178 23 29 c39 49 90 155 113 234 28 94 38 323 21 425 -34 193 -128 366 -274
501 -118 109 -268 188 -419 218 -72 15 -265 20 -328 9z"/>
</g>
</svg>
